<?xml version="1.0" encoding="utf-8"?>
<!-- Generator: Adobe Illustrator 16.0.0, SVG Export Plug-In . SVG Version: 6.00 Build 0)  -->
<!DOCTYPE svg PUBLIC "-//W3C//DTD SVG 1.1//EN" "http://www.w3.org/Graphics/SVG/1.1/DTD/svg11.dtd">
<svg version="1.1" xmlns="http://www.w3.org/2000/svg" xmlns:xlink="http://www.w3.org/1999/xlink" x="0px" y="0px" width="100px"
	 height="100px" viewBox="0 0 100 100" enable-background="new 0 0 100 100" xml:space="preserve">
<g id="Capa_1">
	<g>
		<path fill="#556080" d="M77.587,26.724L70.69,9.482H29.312l-6.897,17.241H6.551c-3.617,0-6.55,2.933-6.55,6.55v50.635
			c0,3.65,2.958,6.609,6.608,6.609h86.781c3.649,0,6.608-2.959,6.608-6.609V33.273c0-3.617-2.933-6.55-6.55-6.55H77.587z"/>
		
			<circle fill="#424A60" stroke="#2B313D" stroke-width="2" stroke-linecap="round" stroke-miterlimit="10" cx="50.001" cy="54.311" r="29.311"/>
		<circle fill="#7383BF" cx="50.001" cy="54.31" r="18.965"/>
		<rect x="10.346" y="18.104" fill="#38454F" width="6.896" height="8.62"/>
		<circle fill="#EFCE4A" cx="87.933" cy="38.792" r="5.172"/>
		<path fill="#879AD8" d="M55.173,54.311c0,6.198,2.445,11.686,6.207,15.146c4.599-3.461,7.586-8.948,7.586-15.146
			s-2.987-11.687-7.586-15.147C57.618,42.624,55.173,48.112,55.173,54.311z"/>
		<path fill="#879AD8" d="M31.036,54.311c0,6.198,2.988,11.686,7.586,15.146c3.762-3.461,6.207-8.948,6.207-15.146
			s-2.445-11.687-6.207-15.147C34.023,42.624,31.036,48.112,31.036,54.311z"/>
		<path fill="#556080" d="M50.001,75c-11.409,0-20.689-9.281-20.689-20.689c0-11.409,9.281-20.69,20.689-20.69
			c11.408,0,20.689,9.281,20.689,20.69C70.69,65.719,61.409,75,50.001,75z M50.001,37.068c-9.507,0-17.241,7.734-17.241,17.242
			c0,9.507,7.734,17.241,17.241,17.241s17.241-7.734,17.241-17.241C67.242,44.803,59.508,37.068,50.001,37.068z"/>
		<circle fill="#4674E8" cx="52.587" cy="48.276" r="6.035"/>
		<circle fill="#BF4D90" cx="48.277" cy="50.862" r="3.449"/>
		<circle fill="#BCCEF7" cx="43.104" cy="47.414" r="3.449"/>
	</g>
</g>
<g id="Capa_2">
</g>
</svg>
