<?xml version="1.0" ?><!DOCTYPE svg  PUBLIC '-//W3C//DTD SVG 1.0//EN'  'http://www.w3.org/TR/2001/REC-SVG-20010904/DTD/svg10.dtd'><svg height="46px" style="shape-rendering:geometricPrecision; text-rendering:geometricPrecision; image-rendering:optimizeQuality; fill-rule:evenodd; clip-rule:evenodd" version="1.0" viewBox="0 0 35318 25210" width="64px" xml:space="preserve" xmlns="http://www.w3.org/2000/svg" xmlns:xlink="http://www.w3.org/1999/xlink"><defs><style type="text/css">
   <![CDATA[
    .fil0 {fill:#27afb7;fill-rule:nonzero}
   ]]>
  </style></defs><g id="Layer_x0020_1"><path class="fil0" d="M0 24106l1655 0 0 -1103c0,-608 249,-1161 648,-1559l3 0c400,-399 952,-648 1557,-648l11587 0c608,0 1161,249 1559,648 399,399 648,951 648,1559l0 1103 1655 0 0 1104 -19311 0 0 -1104zm13128 -21119l5081 3320 906 -1387 26 -40c144,-244 184,-528 129,-790 -57,-274 -222,-530 -475,-696l-51 -33 -2 -2 -3181 -2078c-253,-166 -555,-213 -830,-155 -275,57 -531,222 -697,476l-905 1386zm4478 4242l-5082 -3320 -3623 5546 5082 3319 3623 -5545zm-4224 6466l-5082 -3320 -906 1387 -1 -1c-165,254 -212,555 -154,831 58,276 221,532 474,697l2 0 3234 2113 -1 1c254,165 554,212 831,154 275,-57 531,-222 697,-476l906 -1387zm-6911 -2536l6639 -10163c331,-506 842,-834 1395,-950 552,-116 1151,-22 1658,310l3234 2113 50 33 3 3c477,332 785,826 897,1359 115,551 20,1148 -310,1655l-1 2 1 1 -2388 3655 16127 8621 38 22 5 2c1305,852 1669,2127 1430,3298 -90,444 -270,873 -517,1252 -247,379 -568,716 -939,977 -975,688 -2288,866 -3593,14l-29 -18 -12 -10 -14374 -11304 -2387 3654c-332,507 -843,835 -1396,950 -551,116 -1148,22 -1656,-310l-2 0 -3234 -2113 1 -1c-508,-332 -835,-843 -951,-1395 -115,-551 -21,-1149 310,-1656l0 -2zm10575 -1058l-656 1004 14436 11353c856,545 1707,433 2334,-9 253,-179 476,-414 650,-680 174,-267 300,-565 362,-869 154,-757 -90,-1587 -952,-2152l-16174 -8646zm-14288 14004l13793 0 0 -1103c0,-302 -125,-579 -325,-779 -199,-199 -476,-325 -779,-325l-11587 0c-303,0 -580,124 -780,323l1 1c-199,199 -325,476 -325,779l0 1103z"/></g></svg>