<?xml version="1.0" encoding="utf-8"?>
<!-- Generator: Adobe Illustrator 16.0.0, SVG Export Plug-In . SVG Version: 6.00 Build 0)  -->
<!DOCTYPE svg PUBLIC "-//W3C//DTD SVG 1.1//EN" "http://www.w3.org/Graphics/SVG/1.1/DTD/svg11.dtd">
<svg version="1.1" xmlns="http://www.w3.org/2000/svg" xmlns:xlink="http://www.w3.org/1999/xlink" x="0px" y="0px" width="100px"
	 height="80px" viewBox="0 0 100 80" enable-background="new 0 0 100 80" xml:space="preserve">
<g id="Layer_1">
	<rect x="0.155" y="0.069" fill="#EBE7E3" width="99.69" height="79.862"/>
	<g id="New_Symbol_124">
		<g>
			<path fill="#AAB4BE" d="M70.196,48.285l-6.024-11.396c-1.494-2.774-3.938-7.31-5.433-10.086l-6.024-11.189
				c-1.494-2.774-3.938-2.774-5.432,0L41.26,26.851c-1.493,2.777-3.938,7.367-5.432,10.139l-6.026,11.296
				c-1.494,2.777-0.139,5.247,3.012,5.247h11.457c3.15,0,8.306,0,11.457,0h11.456C70.335,53.532,71.689,51.063,70.196,48.285z
				 M52.862,47.805h-5.728v-5.729h5.728V47.805z M52.862,39.212h-5.728V27.755h5.728V39.212z"/>
			<g>
				
					<text transform="matrix(1 4.479885e-004 -4.479885e-004 1 6.7139 64.5151)" fill="#AAB4BE" font-family="'Corbel'" font-size="8">IMAGEN NO DISPONIBLE</text>
			</g>
		</g>
	</g>
</g>
<g id="Layer_2" display="none">
</g>
</svg>
