<?xml version="1.0" encoding="utf-8"?>
<!-- Generator: Adobe Illustrator 16.0.0, SVG Export Plug-In . SVG Version: 6.00 Build 0)  -->
<!DOCTYPE svg PUBLIC "-//W3C//DTD SVG 1.1//EN" "http://www.w3.org/Graphics/SVG/1.1/DTD/svg11.dtd">
<svg version="1.1" xmlns="http://www.w3.org/2000/svg" xmlns:xlink="http://www.w3.org/1999/xlink" x="0px" y="0px" width="280px"
	 height="60px" viewBox="0 0 280 60" enable-background="new 0 0 280 60" xml:space="preserve">
<g id="Layer_1">
	<g>
		
			<image overflow="visible" opacity="0.75" width="275" height="53" xlink:href="FA406187.png"  transform="matrix(1 0 0 1 2.5879 3.7124)">
		</image>
		<g>
			<g>
				<g>
					<path fill="#DEB12C" d="M93.788,22.157c-1.317,1.361-2.03,3.154-2.003,5.051c0.063,3.915,3.295,7.05,7.209,6.989
						c1.895-0.029,3.665-0.792,4.985-2.156c1.316-1.36,2.03-3.153,2.004-5.05c-0.034-1.896-0.795-3.667-2.155-4.986
						c-1.362-1.323-3.157-2.031-5.056-2.005C96.88,20.028,95.109,20.795,93.788,22.157z M93.709,27.177
						c-0.043-2.857,2.236-5.209,5.095-5.254c2.858-0.043,5.214,2.237,5.257,5.096c0.044,2.859-2.237,5.214-5.1,5.26
						C96.104,32.319,93.751,30.037,93.709,27.177z M94.313,27.124c0.041,2.57,2.164,4.627,4.732,4.588
						c2.574-0.04,4.633-2.159,4.592-4.732c-0.039-2.571-2.157-4.626-4.731-4.588C96.335,22.43,94.275,24.548,94.313,27.124z
						 M95.405,26.401l2.325-0.424l-0.287-2.283l1.051-0.3l1.125,2.029l2.311-0.917l0.577,0.729l-1.628,1.938l1.613,1.727
						l-0.726,0.961l-2.192-1.234l-1.281,2.095l-1.135-0.437l0.246-2.191l-1.869-0.357L95.405,26.401z M97.635,27.071
						c0.017,0.739,0.621,1.33,1.361,1.319c0.74-0.012,1.328-0.622,1.32-1.36c-0.011-0.74-0.619-1.331-1.361-1.314
						C98.217,25.723,97.627,26.333,97.635,27.071z M98.096,27.064c-0.003-0.486,0.384-0.885,0.865-0.892
						c0.488-0.006,0.888,0.383,0.895,0.864c0.006,0.486-0.385,0.886-0.864,0.892C98.507,27.936,98.104,27.548,98.096,27.064z
						 M25.332,28.803c0.564,0.908,8.259,3.293,11.219,2.74c0.09,0-1.299-2.897-1.325-4.647c-0.03-2.145,0.77-4.177,2.27-5.717
						c1.496-1.543,3.5-2.424,5.646-2.443c3.194-0.022,5.719,2.268,5.719,2.268c1.544,1.495,2.406,3.502,2.44,5.649
						c0.012,1.042-1.05,5.103-1.05,5.103h40.07c0,0,0.762-4.399,0.762-4.537c-0.031-2.085,0.751-4.058,2.2-5.555
						c1.454-1.495,3.4-2.336,5.479-2.369c2.086-0.034,4.06,0.748,5.553,2.202c1.5,1.451,2.338,3.398,2.372,5.48
						c0.021,1.575-0.42,3.086-1.259,4.375c3.955,0.196,8.044-0.117,11.973-0.07c0.824,0.201,1.741,0.09,2.636,0.038
						c0.211-0.078,0.608-0.099,0.52-0.44c0.005-0.375-0.432-0.497-0.59-0.78c-0.571-1.182-0.376-2.908-0.813-4.059
						c0-1.673-1.8-1.861-2.821-2.717c-4.944-2.588-9.919-4.895-15.376-5.724c-2.271-0.379-4.593-0.552-6.719-1.523
						c-0.635,0.274-1.464,0.185-2.183-0.133l-9.01-3.112c-1.91-0.9-3.911-1.537-5.896-2.225c-6.706-1.052-14.153-0.741-20.988,0.928
						c-6.08,1.024-12.473,2.438-18.338,4.013c-0.81-1.081-1.242-2.406-1.995-3.515c-0.983-0.26-8.938-1.063-10.467-1.931
						C25.23,10.071,25.332,28.803,25.332,28.803z M117.935,26.833l1.032-0.55l0.571,3.638l0.325,0.481l-1.228,0.257l-0.197-0.749
						L117.935,26.833z M89.111,17.193c-4.95,0.07-10.463-5.696-10.463-5.696l13.711,4.817
						C92.359,16.314,90.296,17.173,89.111,17.193z M63.496,16.411l-1.813-4.54c7.04-1.535,14.09-0.031,14.09-0.031
						c3.784,1.877,9.236,5.541,9.236,5.541L63.496,16.411z M50.79,16.314l2.066-1.095c3.409-1.941,8.36-3.192,8.36-3.192
						l1.564,4.384L50.79,16.314z M30.732,22.802l-0.671-4.584c-0.02-0.156,0.064-0.284,0.188-0.288l0.486-0.005
						c0.128-0.001,0.246,0.121,0.268,0.275l0.669,4.588c0.021,0.156-0.063,0.283-0.187,0.285l-0.489,0.008
						C30.875,23.082,30.753,22.956,30.732,22.802z M29.425,22.825l-0.667-4.589c-0.026-0.156,0.059-0.284,0.186-0.286l0.485-0.005
						c0.122-0.001,0.242,0.122,0.27,0.276l0.667,4.587c0.023,0.156-0.059,0.284-0.19,0.284L29.695,23.1
						C29.57,23.101,29.451,22.977,29.425,22.825z M28.12,22.845l-0.668-4.588c-0.022-0.157,0.06-0.284,0.186-0.288l0.487-0.004
						c0.124-0.001,0.246,0.12,0.268,0.275l0.668,4.587c0.02,0.156-0.063,0.283-0.188,0.286L28.39,23.12
						C28.26,23.121,28.141,22.997,28.12,22.845z M26.331,17.99l0.483-0.006c0.122,0,0.249,0.123,0.268,0.278l0.668,4.586
						c0.025,0.155-0.059,0.283-0.188,0.285l-0.482,0.007c-0.122,0.002-0.242-0.12-0.268-0.275l-0.667-4.587
						C26.124,18.121,26.206,17.992,26.331,17.99z M119.026,30.307c-0.191,0.001-0.387-0.248-0.431-0.559l-0.352-2.41
						c-0.045-0.313,0.07-0.566,0.265-0.567c0.193-0.005,0.386,0.244,0.432,0.555l0.354,2.414
						C119.339,30.052,119.222,30.306,119.026,30.307z M36.208,26.89c0.056,3.915,3.291,7.05,7.204,6.991
						c1.896-0.029,3.667-0.794,4.988-2.155c1.318-1.36,2.029-3.156,2.003-5.051c-0.035-1.896-0.795-3.667-2.156-4.986
						c-1.363-1.322-3.155-2.034-5.053-2.004c-1.895,0.029-3.666,0.798-4.985,2.156C36.886,23.2,36.179,24.995,36.208,26.89z
						 M38.128,26.861c-0.044-2.859,2.237-5.211,5.093-5.255c2.856-0.043,5.217,2.238,5.261,5.097
						c0.044,2.861-2.239,5.212-5.104,5.257C40.521,32.004,38.172,29.721,38.128,26.861z M38.732,26.804
						c0.044,2.573,2.161,4.628,4.737,4.589c2.566-0.041,4.625-2.158,4.587-4.731c-0.039-2.574-2.156-4.626-4.729-4.586
						C40.751,22.115,38.698,24.233,38.732,26.804z M39.956,27.421l-0.131-1.336l2.255-0.449l-0.217-2.261l1.054-0.295l1.125,2.023
						l2.305-0.916l0.578,0.731l-1.75,2.007l1.738,1.655l-0.728,0.964l-2.261-1.236l-1.214,2.098l-1.135-0.44l0.252-2.188
						L39.956,27.421z M42.058,26.753c0.012,0.741,0.616,1.33,1.359,1.319c0.737-0.012,1.328-0.619,1.318-1.359
						c-0.011-0.739-0.623-1.329-1.358-1.317C42.636,25.407,42.045,26.015,42.058,26.753z M42.518,26.75
						c-0.004-0.486,0.383-0.888,0.859-0.895c0.493-0.009,0.89,0.38,0.897,0.865c0.004,0.485-0.38,0.884-0.865,0.892
						C42.927,27.618,42.526,27.23,42.518,26.75z"/>
					<g>
						<path fill="#DEB12C" d="M12.57,45.858c-1.312,1.063-2.618,2.129-3.931,3.197c4.091,0.216,8.049,0.273,11.903,0.185
							c1.115-1.063,2.236-2.132,3.355-3.2C20.228,46.106,16.452,46.049,12.57,45.858z"/>
						<path fill="#DEB12C" d="M27.247,42.84c-1.112,1.068-2.233,2.134-3.349,3.199c3.569-0.175,7.035-0.44,10.404-0.792
							c0.958-1.011,1.919-2.02,2.889-3.028C33.963,42.499,30.651,42.708,27.247,42.84z"/>
						<path fill="#DEB12C" d="M20.429,39.466c-1.311,1.063-2.62,2.128-3.931,3.194c3.678,0.167,7.261,0.224,10.749,0.18
							c1.124-1.065,2.243-2.133,3.356-3.197C27.292,39.662,23.904,39.605,20.429,39.466z"/>
						<path fill="#DEB12C" d="M48.875,38.354c-2.861,0.31-5.794,0.592-8.797,0.839c-0.963,1.009-1.927,2.017-2.887,3.026
							c3.132-0.332,6.186-0.711,9.156-1.121C47.197,40.183,48.03,39.266,48.875,38.354z"/>
						<path fill="#DEB12C" d="M84.764,46.01c1.521,0.637,3.22,1.257,5.153,1.847c1.206-1.099,2.409-2.195,3.614-3.293
							c-2.078-0.47-3.951-0.973-5.652-1.482C86.842,44.058,85.797,45.034,84.764,46.01z"/>
						<path fill="#DEB12C" d="M50.328,44.642c2.817-0.631,5.547-1.226,8.191-1.766c0.676-0.722,1.354-1.442,2.033-2.159
							c-2.583,0.457-5.241,0.959-7.986,1.494C51.819,43.02,51.074,43.832,50.328,44.642z"/>
						<path fill="#DEB12C" d="M77.146,42.535c1.298,0.471,2.521,1.003,3.728,1.582c0.861-0.851,1.72-1.697,2.578-2.546
							c-1.37-0.46-2.755-0.882-4.186-1.253C78.56,41.057,77.853,41.797,77.146,42.535z"/>
						<path fill="#DEB12C" d="M31.413,48.273c3.402-0.506,6.709-1.071,9.907-1.685c0.838-0.912,1.679-1.83,2.521-2.743
							c-3.092,0.511-6.269,0.98-9.539,1.402C33.337,46.253,32.373,47.262,31.413,48.273z"/>
						<path fill="#DEB12C" d="M108.485,50c1.341-1.244,2.689-2.484,4.03-3.726c-4.118-0.1-7.811-0.285-11.101-0.553
							c-1.319,1.194-2.647,2.389-3.96,3.587C100.684,49.641,104.352,49.875,108.485,50z"/>
						<path fill="#DEB12C" d="M86.028,39.023c-0.857,0.852-1.718,1.698-2.577,2.547c1.405,0.488,2.86,1.001,4.428,1.511
							c1.04-0.976,2.079-1.951,3.115-2.927C89.253,39.769,87.609,39.391,86.028,39.023z"/>
						<path fill="#DEB12C" d="M100.778,37.968c-2.401-0.236-4.607-0.487-6.665-0.743c-1.036,0.978-2.072,1.952-3.119,2.93
							c1.877,0.385,3.924,0.756,6.164,1.11C98.365,40.168,99.571,39.069,100.778,37.968z"/>
						<path fill="#DEB12C" d="M76.185,37.593c-0.624,0.671-1.249,1.345-1.872,2.015c1.795,0.157,3.436,0.399,4.953,0.709
							c0.706-0.741,1.412-1.482,2.115-2.219C79.754,37.871,78.03,37.701,76.185,37.593z"/>
						<path fill="#DEB12C" d="M88.606,36.478c-1.714-0.225-3.398-0.427-5.103-0.602c-0.71,0.742-1.416,1.481-2.123,2.222
							c1.563,0.27,3.11,0.585,4.647,0.925C86.888,38.177,87.747,37.327,88.606,36.478z"/>
						<path fill="#DEB12C" d="M120.566,38.828c-4.079-0.047-7.814-0.14-11.222-0.274c-1.321,1.195-2.646,2.388-3.963,3.587
							c3.347,0.195,7.058,0.336,11.159,0.41C117.885,41.31,119.228,40.066,120.566,38.828z"/>
						<path fill="#DEB12C" d="M97.158,41.265c-1.209,1.098-2.418,2.197-3.627,3.298c2.335,0.435,4.95,0.825,7.884,1.158
							c1.324-1.194,2.647-2.389,3.967-3.581C102.355,41.888,99.625,41.594,97.158,41.265z"/>
						<path fill="#DEB12C" d="M62.586,38.556c-0.68,0.721-1.359,1.439-2.033,2.161c2.503-0.405,4.932-0.736,7.289-0.986
							c0.636-0.665,1.27-1.329,1.897-1.995C67.426,37.947,65.037,38.223,62.586,38.556z"/>
						<path fill="#DEB12C" d="M46.348,41.098c-0.83,0.915-1.669,1.83-2.506,2.747c2.993-0.539,5.901-1.088,8.725-1.635
							c0.749-0.812,1.496-1.622,2.239-2.433C52.065,40.223,49.251,40.665,46.348,41.098z"/>
						<path fill="#DEB12C" d="M64.62,36.399c-2.463,0.294-4.992,0.612-7.578,0.946c-0.744,0.812-1.491,1.622-2.236,2.433
							c2.666-0.434,5.255-0.844,7.78-1.222C63.262,37.836,63.941,37.118,64.62,36.399z"/>
						<path fill="#DEB12C" d="M67.842,39.73c-0.634,0.668-1.264,1.33-1.896,1.996c2.31-0.165,4.534-0.198,6.506-0.103
							c0.618-0.671,1.241-1.344,1.861-2.016C72.324,39.545,70.13,39.583,67.842,39.73z"/>
						<path fill="#DEB12C" d="M76.185,37.593c0.626-0.671,1.247-1.344,1.872-2.014c-2.027-0.007-4.187,0.044-6.411,0.161
							c-0.634,0.664-1.267,1.332-1.906,1.995C72.002,37.604,74.181,37.56,76.185,37.593z"/>
					</g>
				</g>
				<g>
					<g>
						<path fill="#DC2814" d="M130.644,21.204h8.348c0.2,0,0.404,0.004,0.613,0.013s0.4,0.046,0.557,0.109
							c0.165,0.063,0.302,0.168,0.41,0.313c0.114,0.146,0.165,0.346,0.165,0.601c0,0.272-0.051,0.477-0.165,0.614
							c-0.108,0.135-0.245,0.24-0.41,0.313c-0.157,0.074-0.348,0.114-0.557,0.125c-0.209,0.008-0.413,0.013-0.613,0.013h-8.348
							v6.956h9.467c0.202,0,0.409,0.005,0.614,0.014c0.207,0.01,0.408,0.046,0.586,0.108c0.179,0.064,0.333,0.165,0.439,0.301
							c0.105,0.136,0.164,0.341,0.164,0.614s-0.058,0.481-0.164,0.627c-0.107,0.146-0.247,0.25-0.427,0.313
							c-0.174,0.065-0.364,0.101-0.587,0.11c-0.216,0.01-0.424,0.013-0.626,0.013h-9.905c-0.286,0-0.53,0-0.731,0
							c-0.187,0-0.335-0.013-0.458-0.04c-0.116-0.028-0.22-0.068-0.313-0.123c-0.086-0.055-0.187-0.127-0.295-0.219
							c-0.199-0.182-0.318-0.391-0.339-0.628c-0.03-0.236-0.049-0.627-0.049-1.171V15.01c0-0.471,0.015-0.836,0.029-1.091
							c0.021-0.253,0.13-0.481,0.333-0.681c0.176-0.2,0.382-0.317,0.612-0.354c0.221-0.037,0.628-0.055,1.209-0.055h9.525
							c0.201,0,0.407,0.005,0.615,0.014c0.208,0.01,0.406,0.046,0.585,0.11c0.179,0.063,0.322,0.162,0.439,0.299
							c0.107,0.136,0.156,0.34,0.156,0.613c0,0.274-0.049,0.484-0.156,0.628c-0.117,0.146-0.257,0.25-0.428,0.313
							c-0.174,0.064-0.37,0.1-0.586,0.108c-0.215,0.01-0.424,0.016-0.625,0.016h-9.086V21.204z"/>
						<path fill="#DC2814" d="M157.134,29.034c-0.31,0.727-0.759,1.363-1.364,1.908c-0.597,0.546-1.345,0.979-2.252,1.296
							c-0.897,0.319-1.942,0.479-3.12,0.479c-0.476,0-0.956-0.028-1.443-0.083c-0.498-0.054-0.985-0.155-1.481-0.299
							c-0.489-0.146-0.963-0.342-1.416-0.587c-0.451-0.245-0.86-0.559-1.229-0.942c-0.546-0.563-0.977-1.204-1.275-1.922
							c-0.318-0.718-0.47-1.368-0.47-1.95c0-0.292,0.108-0.551,0.333-0.779c0.214-0.226,0.486-0.341,0.812-0.341
							c0.365,0,0.626,0.128,0.777,0.383c0.16,0.254,0.349,0.699,0.585,1.335c0.082,0.218,0.193,0.509,0.361,0.874
							c0.166,0.363,0.416,0.719,0.76,1.063c0.345,0.345,0.798,0.642,1.366,0.887c0.56,0.246,1.286,0.368,2.153,0.368
							c0.605,0,1.192-0.077,1.773-0.231c0.582-0.154,1.1-0.388,1.552-0.696c0.461-0.309,0.823-0.69,1.111-1.146
							c0.278-0.453,0.419-0.981,0.419-1.581c0-0.638-0.141-1.16-0.419-1.57c-0.288-0.409-0.633-0.741-1.043-0.995
							c-0.408-0.254-0.834-0.446-1.277-0.573c-0.446-0.127-0.845-0.227-1.189-0.299c-0.904-0.201-1.655-0.374-2.251-0.52
							c-0.591-0.145-1.097-0.286-1.514-0.422c-0.416-0.137-0.778-0.282-1.08-0.437c-0.293-0.154-0.593-0.349-0.879-0.585
							c-0.165-0.126-0.361-0.301-0.574-0.519c-0.224-0.218-0.417-0.486-0.604-0.805c-0.18-0.316-0.337-0.682-0.458-1.091
							c-0.132-0.409-0.197-0.877-0.197-1.405c0-0.89,0.181-1.672,0.548-2.345c0.367-0.673,0.85-1.232,1.462-1.678
							c0.61-0.445,1.313-0.778,2.124-0.997c0.813-0.217,1.649-0.328,2.526-0.328c0.51,0,1.038,0.042,1.599,0.124
							c0.552,0.081,1.099,0.223,1.628,0.422c0.538,0.2,1.046,0.483,1.521,0.847c0.475,0.364,0.868,0.827,1.198,1.391
							c0.18,0.309,0.334,0.646,0.447,1.009c0.117,0.365,0.177,0.7,0.177,1.01c0,0.292-0.104,0.578-0.312,0.86
							c-0.209,0.282-0.5,0.422-0.858,0.422c-0.415,0-0.711-0.14-0.877-0.422c-0.157-0.282-0.293-0.576-0.409-0.886
							c-0.145-0.4-0.292-0.754-0.458-1.063c-0.168-0.31-0.462-0.62-0.878-0.929c-0.344-0.254-0.765-0.45-1.267-0.586
							c-0.495-0.137-1.032-0.205-1.589-0.205c-0.642,0-1.213,0.086-1.708,0.259c-0.504,0.172-0.934,0.401-1.286,0.682
							c-0.351,0.284-0.621,0.61-0.8,0.983c-0.188,0.372-0.273,0.758-0.273,1.158c0,0.583,0.128,1.061,0.41,1.433
							c0.265,0.374,0.615,0.683,1.033,0.928c0.415,0.246,0.888,0.441,1.402,0.586c0.518,0.146,1.017,0.273,1.483,0.382
							c0.806,0.201,1.488,0.377,2.049,0.532c0.567,0.154,1.052,0.309,1.46,0.463c0.408,0.155,0.759,0.314,1.055,0.477
							c0.285,0.165,0.558,0.338,0.818,0.52c0.287,0.218,0.549,0.486,0.773,0.804c0.229,0.319,0.418,0.652,0.563,0.996
							c0.143,0.346,0.251,0.696,0.323,1.051c0.079,0.354,0.116,0.678,0.116,0.968C157.602,27.533,157.441,28.306,157.134,29.034z"/>
						<path fill="#DC2814" d="M175.562,27.983c-0.28,0.718-0.726,1.427-1.335,2.129c-0.61,0.7-1.406,1.305-2.389,1.813
							c-0.982,0.51-2.17,0.764-3.571,0.764c-0.544,0-1.109-0.038-1.676-0.109c-0.575-0.073-1.146-0.196-1.705-0.369
							c-0.569-0.172-1.116-0.409-1.638-0.709c-0.533-0.3-1.014-0.678-1.446-1.132c-0.897-0.946-1.568-2.11-2.036-3.492
							c-0.466-1.381-0.692-2.81-0.692-4.283c0-1.528,0.218-2.914,0.664-4.161c0.445-1.246,1.068-2.304,1.872-3.178
							c0.798-0.873,1.752-1.55,2.867-2.031c1.105-0.482,2.327-0.725,3.655-0.725c0.942,0,1.793,0.119,2.547,0.355
							c0.754,0.237,1.422,0.532,1.996,0.886c0.568,0.356,1.055,0.755,1.454,1.2c0.402,0.447,0.724,0.874,0.973,1.283
							c0.246,0.409,0.424,0.783,0.547,1.118c0.114,0.338,0.176,0.588,0.176,0.751c0,0.255-0.09,0.509-0.264,0.763
							c-0.173,0.255-0.441,0.383-0.801,0.383c-0.2,0-0.376-0.049-0.534-0.149c-0.155-0.1-0.302-0.229-0.438-0.383
							c-0.135-0.154-0.254-0.327-0.361-0.518c-0.117-0.191-0.216-0.378-0.303-0.56c-0.258-0.472-0.568-0.904-0.926-1.295
							c-0.367-0.39-0.757-0.713-1.179-0.968c-0.286-0.181-0.658-0.356-1.104-0.519c-0.445-0.164-1.004-0.246-1.676-0.246
							c-0.691,0-1.422,0.123-2.185,0.369c-0.76,0.245-1.469,0.673-2.114,1.283c-0.646,0.609-1.182,1.437-1.609,2.482
							c-0.428,1.046-0.642,2.37-0.642,3.969c0,1.601,0.208,2.911,0.633,3.93c0.415,1.019,0.935,1.823,1.563,2.414
							c0.629,0.592,1.315,0.996,2.063,1.214c0.747,0.218,1.436,0.328,2.073,0.328c1.415,0,2.598-0.373,3.542-1.119
							c0.948-0.746,1.658-1.8,2.129-3.165c0.092-0.254,0.218-0.505,0.367-0.75c0.157-0.246,0.428-0.368,0.81-0.368
							c0.25,0,0.505,0.091,0.75,0.273c0.243,0.181,0.37,0.454,0.37,0.818C175.99,26.696,175.843,27.265,175.562,27.983z"/>
						<path fill="#DC2814" d="M180.923,25.051c0,0.417,0.029,0.941,0.08,1.568c0.057,0.627,0.242,1.237,0.563,1.827
							c0.316,0.591,0.826,1.096,1.525,1.515c0.702,0.418,1.695,0.628,2.99,0.628c1.144,0,2.053-0.183,2.729-0.546
							c0.669-0.365,1.18-0.823,1.524-1.378c0.346-0.555,0.569-1.155,0.67-1.8c0.102-0.646,0.149-1.243,0.149-1.789V14.683
							c0-0.473,0.015-0.841,0.047-1.104c0.021-0.264,0.123-0.486,0.309-0.669c0.089-0.09,0.218-0.181,0.383-0.273
							c0.164-0.09,0.353-0.137,0.573-0.137c0.381,0,0.697,0.137,0.952,0.41c0.183,0.183,0.288,0.405,0.317,0.669
							c0.028,0.264,0.039,0.631,0.039,1.104v10.149c0,1.001-0.107,1.969-0.328,2.906c-0.218,0.937-0.603,1.773-1.159,2.51
							c-0.555,0.736-1.317,1.327-2.292,1.773c-0.972,0.444-2.21,0.668-3.725,0.668c-1.311,0-2.46-0.137-3.451-0.409
							c-0.992-0.272-1.818-0.719-2.479-1.337c-0.668-0.618-1.167-1.427-1.516-2.428c-0.349-0.999-0.521-2.218-0.521-3.655V14.683
							c0-0.473,0.018-0.841,0.046-1.104c0.021-0.264,0.126-0.486,0.313-0.669c0.086-0.09,0.215-0.181,0.379-0.273
							c0.166-0.09,0.354-0.137,0.576-0.137c0.38,0,0.697,0.137,0.954,0.41c0.181,0.183,0.284,0.405,0.315,0.669
							c0.026,0.264,0.037,0.631,0.037,1.104V25.051z"/>
						<path fill="#DC2814" d="M218.136,21.204h8.346c0.202,0,0.407,0.004,0.616,0.013c0.208,0.009,0.394,0.046,0.556,0.109
							c0.165,0.063,0.302,0.168,0.41,0.313c0.109,0.146,0.164,0.346,0.164,0.601c0,0.272-0.055,0.477-0.164,0.614
							c-0.108,0.135-0.245,0.24-0.41,0.313c-0.162,0.074-0.348,0.114-0.556,0.125c-0.209,0.008-0.415,0.013-0.616,0.013h-8.346
							v6.956h9.467c0.199,0,0.407,0.005,0.614,0.014c0.209,0.01,0.402,0.046,0.588,0.108c0.179,0.064,0.324,0.165,0.437,0.301
							c0.108,0.136,0.16,0.341,0.16,0.614s-0.052,0.481-0.16,0.627c-0.112,0.146-0.254,0.25-0.427,0.313
							c-0.172,0.065-0.368,0.101-0.586,0.11c-0.215,0.01-0.427,0.013-0.625,0.013h-9.905c-0.292,0-0.537,0-0.736,0
							c-0.182,0-0.33-0.013-0.451-0.04c-0.116-0.028-0.22-0.068-0.313-0.123c-0.093-0.055-0.19-0.127-0.301-0.219
							c-0.2-0.182-0.313-0.391-0.341-0.628c-0.029-0.236-0.042-0.627-0.042-1.171V15.01c0-0.471,0.01-0.836,0.029-1.091
							c0.017-0.253,0.128-0.481,0.325-0.681c0.185-0.2,0.389-0.317,0.614-0.354c0.228-0.037,0.633-0.055,1.215-0.055h9.521
							c0.2,0,0.405,0.005,0.613,0.014c0.213,0.01,0.406,0.046,0.59,0.11c0.18,0.063,0.323,0.162,0.435,0.299
							c0.11,0.136,0.165,0.34,0.165,0.613c0,0.274-0.055,0.484-0.165,0.628c-0.111,0.146-0.252,0.25-0.425,0.313
							c-0.172,0.064-0.367,0.1-0.584,0.108c-0.219,0.01-0.429,0.016-0.629,0.016h-9.083V21.204z"/>
						<path fill="#DC2814" d="M234.069,30.507c0,0.4-0.009,0.687-0.03,0.859c-0.014,0.172-0.044,0.332-0.079,0.478
							c-0.095,0.291-0.26,0.504-0.505,0.641c-0.244,0.137-0.487,0.205-0.722,0.205c-0.257,0-0.499-0.077-0.723-0.231
							c-0.23-0.154-0.391-0.359-0.478-0.614c-0.039-0.128-0.061-0.323-0.068-0.586c-0.011-0.264-0.014-0.515-0.014-0.75V15.01
							c0-0.49,0.021-0.881,0.066-1.172c0.048-0.291,0.14-0.509,0.288-0.655c0.142-0.145,0.359-0.241,0.65-0.286
							c0.289-0.045,0.679-0.069,1.17-0.069h6.222c0.073,0,0.253,0.005,0.545,0.014c0.289,0.01,0.619,0.037,0.992,0.082
							c0.374,0.045,0.758,0.123,1.168,0.233c0.407,0.108,0.774,0.262,1.099,0.463c0.781,0.474,1.393,1.1,1.836,1.883
							c0.445,0.782,0.666,1.664,0.666,2.646s-0.192,1.801-0.584,2.455c-0.389,0.656-0.783,1.129-1.179,1.418
							c-0.654,0.491-1.288,0.819-1.904,0.983c-0.614,0.163-1.121,0.282-1.52,0.354c0.251,0.146,0.569,0.351,0.95,0.614
							c0.383,0.264,0.75,0.633,1.112,1.104c0.202,0.256,0.421,0.55,0.668,0.887c0.245,0.337,0.401,0.56,0.474,0.669l1.765,2.974
							c0.202,0.344,0.362,0.624,0.479,0.833s0.208,0.381,0.271,0.518c0.066,0.136,0.104,0.246,0.127,0.327
							c0.016,0.083,0.021,0.179,0.021,0.287c0,0.364-0.117,0.646-0.363,0.845c-0.251,0.2-0.526,0.301-0.833,0.301
							c-0.194,0-0.37-0.028-0.516-0.083c-0.145-0.054-0.283-0.15-0.42-0.286c-0.137-0.137-0.274-0.318-0.417-0.545
							c-0.15-0.228-0.332-0.513-0.547-0.86l-1.847-2.946c-0.672-1.055-1.247-1.877-1.726-2.469c-0.479-0.591-0.923-1.027-1.33-1.31
							c-0.407-0.282-0.802-0.455-1.194-0.519c-0.39-0.063-0.819-0.095-1.288-0.095h-2.281V30.507z M234.069,14.847v6.656h4.553
							c0.31,0,0.742-0.019,1.286-0.054c0.545-0.036,1.083-0.159,1.621-0.368c0.537-0.21,1.003-0.541,1.404-0.996
							c0.4-0.455,0.604-1.109,0.604-1.964c0-1.054-0.417-1.901-1.258-2.537c-0.216-0.183-0.482-0.324-0.79-0.424
							c-0.309-0.1-0.625-0.172-0.956-0.219c-0.328-0.044-0.652-0.071-0.981-0.08c-0.327-0.01-0.611-0.014-0.845-0.014H234.069z"/>
						<path fill="#DC2814" d="M251.802,30.534c0,0.473-0.017,0.843-0.042,1.105c-0.027,0.264-0.131,0.478-0.315,0.641
							c-0.087,0.091-0.216,0.182-0.383,0.272c-0.163,0.092-0.35,0.137-0.572,0.137c-0.159,0-0.329-0.032-0.504-0.094
							c-0.169-0.065-0.324-0.159-0.452-0.288c-0.182-0.182-0.285-0.404-0.313-0.668c-0.027-0.263-0.042-0.632-0.042-1.105V14.656
							c0-0.473,0.015-0.842,0.042-1.105c0.027-0.262,0.131-0.477,0.313-0.641c0.092-0.09,0.217-0.181,0.371-0.273
							c0.158-0.09,0.349-0.137,0.585-0.137c0.165,0,0.333,0.032,0.507,0.096c0.171,0.064,0.324,0.168,0.448,0.313
							c0.185,0.164,0.288,0.383,0.315,0.655c0.025,0.273,0.042,0.638,0.042,1.092V30.534z"/>
						<path fill="#DC2814" d="M258.073,26.714l-1.689,4.364c-0.2,0.528-0.39,0.929-0.562,1.201
							c-0.173,0.272-0.486,0.409-0.938,0.409c-0.366,0-0.668-0.123-0.901-0.368c-0.238-0.245-0.357-0.505-0.357-0.778
							c0-0.199,0.032-0.399,0.098-0.601c0.064-0.2,0.162-0.454,0.285-0.762l6.191-15.361c0.149-0.38,0.287-0.718,0.409-1.008
							c0.128-0.291,0.269-0.532,0.428-0.722c0.15-0.191,0.336-0.337,0.545-0.438c0.208-0.1,0.468-0.15,0.773-0.15
							c0.257,0,0.502,0.051,0.739,0.15c0.235,0.101,0.43,0.232,0.574,0.396c0.144,0.147,0.291,0.396,0.446,0.75
							c0.154,0.355,0.299,0.686,0.423,0.996l6.413,15.277c0.145,0.345,0.249,0.618,0.312,0.819c0.066,0.2,0.098,0.401,0.098,0.6
							c0,0.255-0.118,0.519-0.351,0.792c-0.239,0.272-0.562,0.409-0.957,0.409c-0.459,0-0.771-0.141-0.943-0.422
							c-0.173-0.283-0.367-0.696-0.586-1.241l-1.744-4.311H258.073z M265.987,24.614l-3.654-9.139l-3.521,9.139H265.987z"/>
						<path fill="#DC2814" d="M199.14,32.361c-0.523,0-0.935-0.026-1.236-0.081c-0.301-0.056-0.525-0.173-0.669-0.354
							c-0.144-0.182-0.228-0.437-0.254-0.764c-0.03-0.328-0.044-0.764-0.044-1.311V15.01c0-0.49,0.021-0.881,0.071-1.172
							c0.046-0.291,0.146-0.509,0.297-0.655c0.156-0.145,0.377-0.241,0.667-0.286c0.29-0.045,0.682-0.069,1.169-0.069h4.73
							c0.527,0,1.084,0.019,1.672,0.055c0.59,0.037,1.188,0.137,1.795,0.3c0.607,0.164,1.208,0.423,1.811,0.778
							c0.594,0.354,1.159,0.85,1.681,1.486c0.818,0.981,1.378,2.091,1.687,3.328c0.308,1.237,0.465,2.501,0.465,3.792
							c0,0.638-0.049,1.338-0.137,2.101c-0.093,0.764-0.261,1.524-0.506,2.278c-0.242,0.755-0.587,1.482-1.031,2.182
							c-0.444,0.7-1.028,1.306-1.752,1.814c-0.473,0.327-0.957,0.587-1.458,0.779c-0.497,0.191-0.995,0.336-1.494,0.436
							c-0.498,0.1-0.978,0.16-1.44,0.178c-0.46,0.018-0.884,0.026-1.265,0.026H199.14z M199.556,30.261h4.009
							c0.625,0,1.18-0.027,1.682-0.081c0.499-0.056,0.954-0.155,1.36-0.301c0.41-0.146,0.795-0.342,1.148-0.587
							c0.354-0.245,0.695-0.568,1.022-0.967c0.401-0.473,0.708-1.006,0.914-1.597c0.209-0.59,0.364-1.164,0.463-1.719
							c0.101-0.555,0.16-1.046,0.177-1.474c0.02-0.426,0.029-0.704,0.029-0.833c0-1.309-0.16-2.464-0.479-3.464
							c-0.317-1-0.685-1.773-1.104-2.319c-0.292-0.382-0.599-0.7-0.914-0.955c-0.317-0.254-0.686-0.459-1.104-0.614
							c-0.417-0.154-0.896-0.263-1.435-0.327c-0.535-0.064-1.167-0.094-1.896-0.094h-3.874V30.261z"/>
					</g>
					<g>
						<path fill="#FFFFFF" d="M128.686,43.957l1.307-0.115c0.062,0.525,0.205,0.955,0.43,1.288c0.225,0.337,0.574,0.609,1.051,0.815
							c0.478,0.208,1.016,0.312,1.608,0.312c0.533,0,0.998-0.078,1.4-0.237c0.406-0.156,0.707-0.371,0.909-0.644
							c0.199-0.273,0.291-0.574,0.291-0.898c0-0.328-0.089-0.616-0.285-0.86c-0.191-0.247-0.505-0.453-0.937-0.618
							c-0.288-0.111-0.908-0.281-1.869-0.511c-0.96-0.232-1.638-0.451-2.02-0.655c-0.504-0.262-0.877-0.586-1.122-0.976
							c-0.243-0.386-0.37-0.822-0.37-1.303c0-0.529,0.155-1.023,0.45-1.483c0.301-0.459,0.739-0.807,1.318-1.046
							c0.578-0.238,1.22-0.357,1.919-0.357c0.78,0,1.465,0.125,2.055,0.375c0.598,0.251,1.051,0.618,1.367,1.105
							c0.327,0.485,0.499,1.034,0.516,1.649l-1.33,0.101c-0.07-0.662-0.313-1.162-0.724-1.501c-0.412-0.336-1.021-0.505-1.821-0.505
							c-0.844,0-1.454,0.152-1.838,0.46c-0.382,0.307-0.576,0.677-0.576,1.112c0,0.376,0.136,0.686,0.407,0.928
							c0.269,0.242,0.967,0.492,2.09,0.747c1.127,0.255,1.902,0.478,2.319,0.667c0.611,0.28,1.06,0.637,1.355,1.067
							c0.286,0.433,0.438,0.93,0.438,1.49c0,0.559-0.163,1.084-0.479,1.577c-0.326,0.493-0.78,0.876-1.383,1.15
							c-0.593,0.273-1.27,0.411-2.018,0.411c-0.947,0-1.743-0.138-2.383-0.414c-0.637-0.276-1.144-0.693-1.51-1.247
							C128.895,45.284,128.699,44.658,128.686,43.957z"/>
						<path fill="#FFFFFF" d="M137.542,43.528c0-1.407,0.387-2.448,1.167-3.124c0.653-0.562,1.447-0.842,2.39-0.842
							c1.039,0,1.893,0.342,2.56,1.023c0.658,0.685,0.993,1.63,0.993,2.834c0,0.976-0.153,1.744-0.442,2.304
							c-0.296,0.56-0.719,0.994-1.283,1.304c-0.558,0.312-1.169,0.466-1.828,0.466c-1.061,0-1.919-0.34-2.581-1.022
							C137.865,45.791,137.542,44.81,137.542,43.528z M138.858,43.528c0,0.97,0.219,1.698,0.64,2.181
							c0.42,0.485,0.956,0.727,1.602,0.727c0.634,0,1.167-0.243,1.589-0.729c0.429-0.485,0.638-1.228,0.638-2.223
							c0-0.939-0.21-1.648-0.641-2.133c-0.423-0.483-0.957-0.725-1.586-0.725c-0.646,0-1.182,0.241-1.602,0.721
							C139.078,41.829,138.858,42.556,138.858,43.528z"/>
						<path fill="#FFFFFF" d="M145.4,47.323V36.847h1.282v10.476H145.4z"/>
						<path fill="#FFFFFF" d="M152.921,47.323v-1.117c-0.596,0.86-1.396,1.288-2.414,1.288c-0.446,0-0.862-0.085-1.255-0.257
							c-0.387-0.171-0.671-0.387-0.864-0.647c-0.183-0.259-0.315-0.579-0.39-0.954c-0.057-0.253-0.084-0.653-0.084-1.2v-4.702h1.288
							v4.208c0,0.671,0.03,1.125,0.076,1.356c0.087,0.339,0.258,0.605,0.514,0.798c0.266,0.192,0.587,0.289,0.978,0.289
							c0.382,0,0.749-0.1,1.081-0.298c0.339-0.196,0.577-0.466,0.727-0.807c0.138-0.341,0.208-0.835,0.208-1.483v-4.064h1.281v7.589
							H152.921z"/>
						<path fill="#FFFFFF" d="M160.306,44.542l1.265,0.165c-0.138,0.872-0.497,1.552-1.061,2.046
							c-0.573,0.493-1.268,0.741-2.103,0.741c-1.036,0-1.867-0.339-2.502-1.02c-0.628-0.679-0.948-1.652-0.948-2.918
							c0-0.82,0.136-1.537,0.408-2.151c0.27-0.615,0.685-1.077,1.243-1.383c0.555-0.307,1.154-0.459,1.805-0.459
							c0.832,0,1.5,0.208,2.03,0.625c0.521,0.417,0.858,1.008,1.002,1.775l-1.246,0.192c-0.122-0.51-0.332-0.892-0.636-1.149
							c-0.304-0.257-0.663-0.386-1.096-0.386c-0.649,0-1.171,0.232-1.577,0.697c-0.408,0.464-0.61,1.199-0.61,2.204
							c0,1.021,0.199,1.76,0.585,2.223c0.395,0.462,0.905,0.694,1.53,0.694c0.508,0,0.925-0.155,1.266-0.464
							C160.001,45.66,160.213,45.186,160.306,44.542z"/>
						<path fill="#FFFFFF" d="M161.948,38.325v-1.479h1.281v1.479H161.948z M161.948,47.323v-7.589h1.281v7.589H161.948z"/>
						<path fill="#FFFFFF" d="M163.976,43.528c0-1.407,0.396-2.448,1.176-3.124c0.653-0.562,1.447-0.842,2.382-0.842
							c1.048,0,1.9,0.342,2.561,1.023c0.663,0.685,0.991,1.63,0.991,2.834c0,0.976-0.144,1.744-0.439,2.304
							c-0.288,0.56-0.719,0.994-1.277,1.304c-0.556,0.312-1.167,0.466-1.835,0.466c-1.062,0-1.92-0.34-2.573-1.022
							C164.308,45.791,163.976,44.81,163.976,43.528z M165.3,43.528c0,0.97,0.211,1.698,0.634,2.181
							c0.427,0.485,0.957,0.727,1.6,0.727c0.641,0,1.173-0.243,1.596-0.729c0.422-0.485,0.641-1.228,0.641-2.223
							c0-0.939-0.219-1.648-0.642-2.133c-0.43-0.483-0.957-0.725-1.595-0.725c-0.643,0-1.173,0.241-1.6,0.721
							C165.511,41.829,165.3,42.556,165.3,43.528z"/>
						<path fill="#FFFFFF" d="M171.863,47.323v-7.589h1.16v1.079c0.554-0.834,1.363-1.25,2.411-1.25c0.461,0,0.878,0.081,1.26,0.246
							c0.385,0.164,0.673,0.379,0.863,0.647c0.189,0.265,0.323,0.583,0.4,0.949c0.051,0.237,0.07,0.656,0.07,1.251v4.667h-1.283
							v-4.619c0-0.521-0.054-0.914-0.153-1.173c-0.101-0.26-0.278-0.468-0.528-0.623c-0.259-0.155-0.553-0.231-0.899-0.231
							c-0.551,0-1.018,0.173-1.419,0.521c-0.399,0.349-0.593,1.007-0.593,1.98v4.146H171.863z"/>
						<path fill="#FFFFFF" d="M184.467,44.878l1.329,0.163c-0.212,0.778-0.6,1.38-1.168,1.809c-0.563,0.428-1.287,0.643-2.17,0.643
							c-1.111,0-1.988-0.341-2.637-1.025c-0.652-0.684-0.981-1.642-0.981-2.878c0-1.275,0.333-2.266,0.987-2.972
							c0.657-0.705,1.51-1.056,2.563-1.056c1.011,0,1.842,0.345,2.487,1.035c0.637,0.691,0.962,1.661,0.962,2.917
							c0,0.075-0.003,0.19-0.01,0.343h-5.658c0.046,0.834,0.283,1.471,0.709,1.915c0.42,0.443,0.955,0.665,1.583,0.665
							c0.475,0,0.878-0.126,1.207-0.373C184.005,45.817,184.271,45.42,184.467,44.878z M180.241,42.799h4.237
							c-0.057-0.638-0.217-1.116-0.482-1.436c-0.41-0.496-0.944-0.744-1.597-0.744c-0.59,0-1.089,0.198-1.487,0.593
							C180.51,41.607,180.282,42.136,180.241,42.799z"/>
						<path fill="#FFFFFF" d="M186.161,45.056l1.272-0.201c0.075,0.511,0.271,0.901,0.598,1.173s0.783,0.408,1.367,0.408
							c0.592,0,1.028-0.121,1.314-0.361c0.289-0.24,0.43-0.524,0.43-0.848c0-0.291-0.127-0.518-0.378-0.686
							c-0.175-0.115-0.615-0.259-1.316-0.437c-0.94-0.238-1.593-0.444-1.961-0.618c-0.365-0.173-0.642-0.414-0.827-0.721
							c-0.189-0.307-0.279-0.647-0.279-1.019c0-0.337,0.076-0.651,0.228-0.94c0.157-0.286,0.365-0.526,0.635-0.717
							c0.2-0.147,0.472-0.273,0.818-0.376c0.345-0.104,0.717-0.152,1.109-0.152c0.599,0,1.12,0.086,1.569,0.257
							c0.449,0.172,0.782,0.403,0.996,0.696c0.217,0.292,0.362,0.684,0.442,1.175l-1.255,0.172
							c-0.057-0.391-0.225-0.697-0.498-0.914c-0.273-0.219-0.659-0.33-1.162-0.33c-0.589,0-1.013,0.098-1.264,0.294
							c-0.25,0.195-0.379,0.423-0.379,0.686c0,0.166,0.051,0.316,0.158,0.449c0.106,0.138,0.268,0.253,0.491,0.343
							c0.13,0.048,0.51,0.157,1.136,0.328c0.913,0.245,1.544,0.443,1.906,0.597c0.357,0.155,0.642,0.379,0.848,0.677
							c0.204,0.294,0.307,0.66,0.307,1.1c0,0.428-0.126,0.833-0.373,1.211c-0.255,0.378-0.613,0.671-1.085,0.878
							c-0.473,0.21-1.003,0.313-1.603,0.313c-0.985,0-1.737-0.204-2.253-0.614C186.635,46.47,186.304,45.861,186.161,45.056z"/>
						<path fill="#FFFFFF" d="M194.804,47.323l4.024-10.476h1.49l4.288,10.476h-1.577l-1.225-3.173h-4.377l-1.152,3.173H194.804z
							 M197.822,43.021h3.554l-1.095-2.902c-0.329-0.88-0.58-1.604-0.741-2.172c-0.133,0.671-0.323,1.338-0.564,2.001
							L197.822,43.021z"/>
						<path fill="#FFFFFF" d="M209.911,47.323v-9.24h-3.452v-1.236h8.304v1.236h-3.465v9.24H209.911z"/>
						<path fill="#FFFFFF" d="M219.718,47.323v-1.117c-0.588,0.86-1.394,1.288-2.408,1.288c-0.448,0-0.866-0.085-1.253-0.257
							c-0.391-0.171-0.677-0.387-0.863-0.647c-0.189-0.259-0.323-0.579-0.399-0.954c-0.053-0.253-0.078-0.653-0.078-1.2v-4.702
							h1.286v4.208c0,0.671,0.025,1.125,0.081,1.356c0.079,0.339,0.25,0.605,0.513,0.798c0.262,0.192,0.586,0.289,0.971,0.289
							c0.385,0,0.747-0.1,1.087-0.298c0.339-0.196,0.579-0.466,0.718-0.807c0.141-0.341,0.21-0.835,0.21-1.483v-4.064h1.287v7.589
							H219.718z"/>
						<path fill="#FFFFFF" d="M223.69,47.323l4.023-10.476h1.496l4.285,10.476h-1.578l-1.223-3.173h-4.379l-1.15,3.173H223.69z
							 M226.714,43.021h3.553l-1.094-2.902c-0.334-0.88-0.581-1.604-0.744-2.172c-0.135,0.671-0.322,1.338-0.566,2.001
							L226.714,43.021z"/>
						<path fill="#FFFFFF" d="M233.678,47.323V36.847h1.287v10.476H233.678z"/>
						<path fill="#FFFFFF" d="M241.18,44.542l1.265,0.165c-0.138,0.872-0.492,1.552-1.061,2.046
							c-0.571,0.493-1.268,0.741-2.101,0.741c-1.037,0-1.872-0.339-2.503-1.02c-0.629-0.679-0.945-1.652-0.945-2.918
							c0-0.82,0.134-1.537,0.407-2.151c0.269-0.615,0.684-1.077,1.242-1.383c0.551-0.307,1.158-0.459,1.809-0.459
							c0.826,0,1.5,0.208,2.023,0.625c0.523,0.417,0.86,1.008,1.006,1.775l-1.247,0.192c-0.122-0.51-0.334-0.892-0.635-1.149
							c-0.304-0.257-0.666-0.386-1.098-0.386c-0.648,0-1.172,0.232-1.58,0.697c-0.404,0.464-0.606,1.199-0.606,2.204
							c0,1.021,0.196,1.76,0.586,2.223c0.394,0.462,0.901,0.694,1.53,0.694c0.506,0,0.925-0.155,1.264-0.464
							C240.873,45.66,241.087,45.186,241.18,44.542z"/>
						<path fill="#FFFFFF" d="M247.766,46.386c-0.477,0.406-0.938,0.69-1.38,0.857c-0.438,0.167-0.909,0.25-1.413,0.25
							c-0.837,0-1.477-0.203-1.922-0.611c-0.451-0.409-0.675-0.927-0.675-1.563c0-0.37,0.084-0.709,0.253-1.017
							c0.169-0.308,0.392-0.556,0.667-0.739c0.274-0.186,0.583-0.325,0.925-0.422c0.251-0.067,0.632-0.132,1.142-0.192
							c1.041-0.125,1.803-0.271,2.293-0.443c0.009-0.178,0.01-0.289,0.01-0.337c0-0.525-0.124-0.893-0.367-1.108
							c-0.329-0.291-0.817-0.435-1.466-0.435c-0.604,0-1.052,0.106-1.338,0.316c-0.287,0.214-0.503,0.589-0.641,1.126l-1.257-0.172
							c0.117-0.537,0.302-0.973,0.564-1.303c0.265-0.331,0.642-0.585,1.137-0.765c0.495-0.177,1.068-0.267,1.722-0.267
							c0.648,0,1.174,0.076,1.581,0.228c0.406,0.153,0.7,0.344,0.892,0.576c0.19,0.23,0.321,0.522,0.402,0.875
							c0.042,0.219,0.062,0.615,0.062,1.185v1.716c0,1.193,0.026,1.952,0.084,2.268c0.053,0.317,0.164,0.622,0.321,0.913h-1.342
							C247.886,47.055,247.802,46.744,247.766,46.386z M247.655,43.514c-0.464,0.19-1.167,0.351-2.1,0.484
							c-0.527,0.078-0.899,0.163-1.122,0.257c-0.216,0.097-0.386,0.236-0.509,0.419c-0.114,0.182-0.177,0.386-0.177,0.609
							c0,0.343,0.131,0.629,0.389,0.86c0.259,0.227,0.639,0.342,1.143,0.342c0.492,0,0.934-0.11,1.318-0.325
							c0.391-0.218,0.67-0.514,0.853-0.89c0.137-0.291,0.205-0.722,0.205-1.288V43.514z"/>
						<path fill="#FFFFFF" d="M250.217,47.323v-7.589h1.158v1.079c0.561-0.834,1.364-1.25,2.417-1.25
							c0.455,0,0.88,0.081,1.262,0.246c0.381,0.164,0.668,0.379,0.859,0.647c0.193,0.265,0.323,0.583,0.402,0.949
							c0.044,0.237,0.07,0.656,0.07,1.251v4.667h-1.288v-4.619c0-0.521-0.047-0.914-0.146-1.173
							c-0.101-0.26-0.279-0.468-0.535-0.623c-0.252-0.155-0.555-0.231-0.896-0.231c-0.548,0-1.021,0.173-1.418,0.521
							c-0.396,0.349-0.597,1.007-0.597,1.98v4.146H250.217z"/>
						<path fill="#FFFFFF" d="M262.578,44.542l1.264,0.165c-0.138,0.872-0.488,1.552-1.061,2.046
							c-0.57,0.493-1.268,0.741-2.094,0.741c-1.044,0-1.875-0.339-2.509-1.02c-0.63-0.679-0.943-1.652-0.943-2.918
							c0-0.82,0.137-1.537,0.406-2.151c0.268-0.615,0.684-1.077,1.24-1.383c0.552-0.307,1.159-0.459,1.81-0.459
							c0.824,0,1.5,0.208,2.021,0.625c0.523,0.417,0.859,1.008,1.006,1.775l-1.248,0.192c-0.12-0.51-0.331-0.892-0.634-1.149
							c-0.302-0.257-0.665-0.386-1.098-0.386c-0.647,0-1.172,0.232-1.578,0.697c-0.404,0.464-0.606,1.199-0.606,2.204
							c0,1.021,0.195,1.76,0.584,2.223c0.395,0.462,0.904,0.694,1.529,0.694c0.507,0,0.926-0.155,1.266-0.464
							C262.271,45.66,262.486,45.186,262.578,44.542z"/>
						<path fill="#FFFFFF" d="M269.407,44.878l1.33,0.163c-0.212,0.778-0.601,1.38-1.163,1.809c-0.57,0.428-1.292,0.643-2.176,0.643
							c-1.104,0-1.989-0.341-2.639-1.025c-0.65-0.684-0.978-1.642-0.978-2.878c0-1.275,0.333-2.266,0.987-2.972
							c0.656-0.705,1.511-1.056,2.56-1.056c1.017,0,1.843,0.345,2.488,1.035c0.639,0.691,0.964,1.661,0.964,2.917
							c0,0.075-0.003,0.19-0.007,0.343h-5.662c0.048,0.834,0.283,1.471,0.71,1.915c0.421,0.443,0.952,0.665,1.583,0.665
							c0.474,0,0.878-0.126,1.213-0.373C268.944,45.817,269.21,45.42,269.407,44.878z M265.182,42.799h4.236
							c-0.056-0.638-0.216-1.116-0.484-1.436c-0.41-0.496-0.942-0.744-1.594-0.744c-0.591,0-1.088,0.198-1.488,0.593
							C265.447,41.607,265.224,42.136,265.182,42.799z"/>
					</g>
				</g>
			</g>
		</g>
	</g>
</g>
<g id="Layer_2" display="none">
</g>
</svg>
