<?xml version="1.0" encoding="utf-8"?>
<!-- Generator: Adobe Illustrator 16.0.0, SVG Export Plug-In . SVG Version: 6.00 Build 0)  -->
<!DOCTYPE svg PUBLIC "-//W3C//DTD SVG 1.1//EN" "http://www.w3.org/Graphics/SVG/1.1/DTD/svg11.dtd">
<svg version="1.1" id="Capa_1" xmlns="http://www.w3.org/2000/svg" xmlns:xlink="http://www.w3.org/1999/xlink" x="0px" y="0px"
	 width="100px" height="100px" viewBox="0 0 100 100" enable-background="new 0 0 100 100" xml:space="preserve">
<g>
	<path id="Blue_1_" fill="#3D5A98" d="M94.48,100c3.048,0,5.519-2.472,5.519-5.52V5.519C99.999,2.471,97.528,0,94.48,0H5.519
		C2.47,0,0,2.471,0,5.519V94.48C0,97.528,2.47,100,5.519,100H94.48z"/>
	<path id="f" fill="#FFFFFF" d="M68.998,100V61.274h12.998l1.946-15.092H68.998v-9.635c0-4.37,1.213-7.347,7.479-7.347l7.991-0.004
		V15.698c-1.382-0.184-6.126-0.595-11.645-0.595c-11.522,0-19.411,7.033-19.411,19.949v11.13H40.381v15.092h13.032V100H68.998z"/>
</g>
</svg>
