<?xml version="1.0" encoding="utf-8"?>
<!-- Generator: Adobe Illustrator 16.0.0, SVG Export Plug-In . SVG Version: 6.00 Build 0)  -->
<!DOCTYPE svg PUBLIC "-//W3C//DTD SVG 1.1//EN" "http://www.w3.org/Graphics/SVG/1.1/DTD/svg11.dtd">
<svg version="1.1" id="Capa_1" xmlns="http://www.w3.org/2000/svg" xmlns:xlink="http://www.w3.org/1999/xlink" x="0px" y="0px"
	 width="100px" height="100px" viewBox="0 0 100 100" enable-background="new 0 0 100 100" xml:space="preserve">
<g>
	<path id="Blue_1_" fill="#3D5A98" d="M-95.186,100c3.048,0,5.519-2.472,5.519-5.52V5.519c0-3.048-2.471-5.519-5.519-5.519h-88.961
		c-3.049,0-5.519,2.471-5.519,5.519V94.48c0,3.048,2.47,5.52,5.519,5.52H-95.186z"/>
	<path id="f" fill="#FFFFFF" d="M-120.668,100V61.274h12.998l1.946-15.092h-14.944v-9.635c0-4.37,1.213-7.347,7.479-7.347
		l7.991-0.004V15.698c-1.382-0.184-6.126-0.595-11.645-0.595c-11.522,0-19.411,7.033-19.411,19.949v11.13h-13.032v15.092h13.032V100
		H-120.668z"/>
</g>
<path id="Blue_2_" fill="#1DA1F2" d="M94.48,100c3.049,0,5.52-2.472,5.52-5.52V5.519C100,2.471,97.529,0,94.48,0H5.52
	C2.471,0,0,2.471,0,5.519V94.48C0,97.528,2.471,100,5.52,100H94.48z"/>
<path fill="#FFFFFF" d="M38.405,75.393c23.585,0,36.486-19.54,36.486-36.484c0-0.556,0-1.107-0.038-1.658
	c2.51-1.814,4.676-4.063,6.397-6.637c-2.34,1.036-4.822,1.717-7.365,2.017c2.678-1.603,4.681-4.123,5.638-7.093
	c-2.517,1.494-5.271,2.547-8.143,3.113c-4.856-5.164-12.979-5.414-18.143-0.557c-3.331,3.131-4.744,7.799-3.71,12.252
	c-10.31-0.518-19.916-5.387-26.427-13.398c-3.403,5.859-1.665,13.355,3.97,17.117c-2.041-0.06-4.037-0.61-5.82-1.604
	c0,0.053,0,0.107,0,0.163c0.001,6.104,4.304,11.36,10.288,12.569c-1.888,0.516-3.869,0.59-5.79,0.221
	c1.68,5.223,6.494,8.801,11.98,8.904c-4.541,3.568-10.15,5.506-15.925,5.5c-1.021-0.002-2.04-0.063-3.053-0.185
	c5.864,3.763,12.688,5.759,19.655,5.75"/>
</svg>
