<?xml version="1.0" encoding="utf-8"?>
<!-- Generator: Adobe Illustrator 16.0.0, SVG Export Plug-In . SVG Version: 6.00 Build 0)  -->
<!DOCTYPE svg PUBLIC "-//W3C//DTD SVG 1.1//EN" "http://www.w3.org/Graphics/SVG/1.1/DTD/svg11.dtd">
<svg version="1.1" id="Capa_1" xmlns="http://www.w3.org/2000/svg" xmlns:xlink="http://www.w3.org/1999/xlink" x="0px" y="0px"
	 width="100px" height="100px" viewBox="0 0 100 100" enable-background="new 0 0 100 100" xml:space="preserve">
<path id="Blue_2_" fill="#1DA1F2" d="M100,100V0H0v100H100z"/>
<path fill="#FFFFFF" d="M38.405,75.393c23.585,0,36.486-19.539,36.486-36.483c0-0.556,0-1.107-0.037-1.658
	c2.51-1.814,4.676-4.063,6.396-6.637c-2.34,1.036-4.822,1.717-7.365,2.017c2.678-1.603,4.682-4.123,5.639-7.093
	c-2.518,1.494-5.271,2.547-8.144,3.113c-4.856-5.164-12.979-5.414-18.144-0.557c-3.33,3.131-4.743,7.799-3.709,12.252
	c-10.31-0.518-19.916-5.387-26.427-13.398c-3.403,5.859-1.665,13.354,3.97,17.117c-2.041-0.06-4.037-0.61-5.82-1.604
	c0,0.053,0,0.107,0,0.163c0.001,6.104,4.304,11.36,10.288,12.569c-1.888,0.516-3.869,0.59-5.79,0.221
	c1.68,5.223,6.494,8.801,11.98,8.904c-4.541,3.567-10.15,5.506-15.925,5.5c-1.021-0.002-2.04-0.063-3.053-0.186
	c5.864,3.764,12.688,5.76,19.655,5.75"/>
</svg>
